<svg width="16" height="16" viewBox="0 0 16 16" fill="none" xmlns="http://www.w3.org/2000/svg">
<path fill-rule="evenodd" clip-rule="evenodd" d="M3 13.5C2.86739 13.5 2.74021 13.4473 2.64645 13.3536C2.55268 13.2598 2.5 13.1326 2.5 13V3C2.5 2.86739 2.55268 2.74021 2.64645 2.64645C2.74021 2.55268 2.86739 2.5 3 2.5H12.25C12.4489 2.5 12.6397 2.42098 12.7803 2.28033C12.921 2.13968 13 1.94891 13 1.75C13 1.55109 12.921 1.36032 12.7803 1.21967C12.6397 1.07902 12.4489 1 12.25 1H3C2.46957 1 1.96086 1.21071 1.58579 1.58579C1.21071 1.96086 1 2.46957 1 3V13C1 13.5304 1.21071 14.0391 1.58579 14.4142C1.96086 14.7893 2.46957 15 3 15H13C13.5304 15 14.0391 14.7893 14.4142 14.4142C14.7893 14.0391 15 13.5304 15 13V9.75C15 9.55109 14.921 9.36032 14.7803 9.21967C14.6397 9.07902 14.4489 9 14.25 9C14.0511 9 13.8603 9.07902 13.7197 9.21967C13.579 9.36032 13.5 9.55109 13.5 9.75V13C13.5 13.1326 13.4473 13.2598 13.3536 13.3536C13.2598 13.4473 13.1326 13.5 13 13.5H3ZM15.78 4.68C15.9125 4.53782 15.9846 4.34978 15.9812 4.15548C15.9777 3.96118 15.899 3.77579 15.7616 3.63838C15.6242 3.50097 15.4388 3.42225 15.2445 3.41882C15.0502 3.4154 14.8622 3.48752 14.72 3.62L9.162 9.177L7.289 7.241C7.22066 7.1696 7.13889 7.1124 7.04837 7.07271C6.95786 7.03301 6.86039 7.0116 6.76157 7.0097C6.66276 7.0078 6.56454 7.02545 6.47257 7.06163C6.38059 7.09782 6.29668 7.15183 6.22565 7.22055C6.15462 7.28928 6.09787 7.37136 6.05867 7.46209C6.01947 7.55282 5.99859 7.6504 5.99723 7.74923C5.99586 7.84806 6.01405 7.94618 6.05074 8.03795C6.08742 8.12973 6.14189 8.21335 6.211 8.284L8.614 10.768C8.68314 10.8397 8.76587 10.8969 8.85737 10.9363C8.94887 10.9757 9.04729 10.9965 9.1469 10.9974C9.24651 10.9983 9.34531 10.9794 9.43752 10.9417C9.52974 10.9041 9.61353 10.8484 9.684 10.778L15.78 4.68Z" fill="white"/>
</svg>
